<?xml version="1.0" encoding="UTF-8"?>
<svg id="Layer_2" data-name="Layer 2" xmlns="http://www.w3.org/2000/svg" viewBox="0 0 2048 2048">
  <defs>
    <style>
      .cls-1 {
        fill: #1a1a1a;
      }

      .cls-1, .cls-2 {
        stroke-width: 0px;
      }

      .cls-2 {
        fill: #fff;
      }
    </style>
  </defs>
  <rect class="cls-1" width="2048" height="2048" rx="150" ry="150"/>
  <g>
    <path class="cls-2" d="m1768.08,1506.28c-17.06,0-32.04-5.62-44.51-16.7-12.97-11.53-19.55-27.46-19.55-47.36,0-17.11,6.11-32.04,18.15-44.37,12.13-12.42,27.25-18.71,44.94-18.71s32.75,6.16,45.18,18.31c12.52,12.24,18.87,27.31,18.87,44.77,0,19.61-6.48,35.45-19.25,47.08-12.38,11.27-27.13,16.98-43.83,16.98Zm-.98-97.88c-9.78,0-17.4,3.14-24,9.9-6.7,6.85-9.81,14.45-9.81,23.92,0,11.33,3.18,19.67,9.72,25.48,7.05,6.27,15.25,9.31,25.07,9.31s17.21-3.06,24.13-9.36c6.52-5.93,9.69-14.25,9.69-25.43,0-9.55-3.2-17.13-10.07-23.84-6.87-6.71-14.96-9.97-24.72-9.97Z"/>
    <g>
      <path class="cls-2" d="m807.39,763.93c-4.13-2.4-8.33-4.71-12.55-6.95,4.22,2.24,8.42,4.57,12.55,6.95Zm-113.32-43.81c2.36.51,4.69,1.05,7.02,1.59-2.33-.56-4.67-1.1-7-1.61l-.02.02Z"/>
      <path class="cls-2" d="m1412.1,826.7c-128.34-311.49-581.38-387.1-801.4-129.29-7.35,8.61-17.89,13.9-29.18,14.74-497.48,37.26-483.7,785.68,27.36,794.14-.02,0,806.51,0,806.51,0,417.83-6.97,431.99-614.3,32.1-653.42-15.7-1.54-29.37-11.58-35.39-26.17Zm-1126.26,281.95c11.22-426.2,635.55-425.65,646.02,0-10.53,425.6-634.88,426.12-646.02,0Zm683.34,323h0c-42.93,0-67.55-48.92-41.94-83.38,113.92-153.29,105.53-386.41-39.35-522.92t-.02-.02c-1.73-1.7-3.45-3.41-5.23-5.09-3.57-3.31-7.14-6.71-10.82-9.89-44.74-39.68-98.58-68.97-156.2-84.92-9.24-2.56-11.93-14.5-4.66-20.74,209.9-180.14,572.79-75.21,648.44,195.57,86.75,253.03-122.19,538.77-390.22,531.38Zm446.2,0h-46.2c-45.15,0-68.88-53.26-38.94-87.06,95.46-107.79,140.66-256.95,116.07-401.15-1.39-8.14,5.75-15.24,13.89-13.89,292.39,48.43,263.42,502.37-44.83,502.09Z"/>
    </g>
  </g>
</svg>