<?xml version="1.0" encoding="UTF-8"?><svg id="Layer_1" xmlns="http://www.w3.org/2000/svg" viewBox="0 0 1420.13 311.08"><defs><style>.cls-1{fill:#fff;stroke-width:0px;}</style></defs><path class="cls-1" d="m685,215.5c0,9.3-2.4,17.65-7.18,25.06-4.79,7.41-11.8,13.21-21.03,17.41-9.23,4.19-20.17,6.29-32.82,6.29-15.17,0-27.69-2.87-37.54-8.6-6.99-4.12-12.67-9.63-17.04-16.52-4.37-6.89-6.55-13.58-6.55-20.08,0-3.78,1.31-7.01,3.93-9.7,2.62-2.69,5.96-4.04,10.02-4.04,3.28,0,6.06,1.05,8.34,3.15,2.27,2.1,4.21,5.21,5.82,9.33,1.96,4.89,4.07,8.98,6.34,12.27,2.27,3.29,5.47,6,9.59,8.13,4.12,2.13,9.54,3.2,16.25,3.2,9.23,0,16.73-2.15,22.49-6.45,5.77-4.3,8.65-9.66,8.65-16.1,0-5.1-1.56-9.25-4.67-12.43-3.11-3.18-7.13-5.61-12.06-7.29-4.93-1.68-11.52-3.46-19.77-5.35-11.05-2.59-20.29-5.61-27.74-9.07-7.45-3.46-13.35-8.18-17.72-14.16-4.37-5.98-6.55-13.41-6.55-22.29s2.31-15.97,6.92-22.55c4.61-6.57,11.29-11.62,20.03-15.15,8.74-3.53,19.02-5.3,30.83-5.3,9.44,0,17.6,1.17,24.49,3.51,6.89,2.34,12.6,5.45,17.15,9.33,4.54,3.88,7.87,7.95,9.96,12.22,2.1,4.27,3.15,8.43,3.15,12.48,0,3.71-1.31,7.04-3.93,10.02-2.62,2.97-5.89,4.46-9.81,4.46-3.57,0-6.28-.89-8.13-2.67-1.85-1.78-3.86-4.7-6.03-8.76-2.8-5.8-6.15-10.33-10.07-13.58-3.92-3.25-10.21-4.88-18.88-4.88-8.04,0-14.52,1.77-19.45,5.3-4.93,3.53-7.39,7.78-7.39,12.74,0,3.08.84,5.73,2.52,7.97,1.68,2.24,3.99,4.16,6.92,5.77,2.94,1.61,5.91,2.87,8.91,3.78,3.01.91,7.97,2.24,14.89,3.99,8.67,2.03,16.52,4.26,23.54,6.71,7.03,2.45,13,5.42,17.93,8.91,4.93,3.5,8.77,7.92,11.53,13.27,2.76,5.35,4.14,11.9,4.14,19.66Z"/><path class="cls-1" d="m804.65,208.16v38.07c0,6.01-1.36,10.52-4.09,13.53-2.73,3.01-6.33,4.51-10.8,4.51s-7.85-1.5-10.54-4.51c-2.69-3-4.04-7.51-4.04-13.53v-45.62c0-7.2-.25-12.79-.73-16.78-.49-3.99-1.82-7.25-3.99-9.8-2.17-2.55-5.59-3.83-10.28-3.83-9.37,0-15.54,3.22-18.51,9.65-2.97,6.43-4.46,15.66-4.46,27.69v38.7c0,5.94-1.35,10.43-4.04,13.48-2.69,3.04-6.24,4.56-10.64,4.56s-7.88-1.52-10.64-4.56c-2.76-3.04-4.14-7.53-4.14-13.48v-81.9c0-5.38,1.24-9.47,3.72-12.27,2.48-2.8,5.75-4.19,9.8-4.19s7.18,1.31,9.81,3.93c2.62,2.62,3.93,6.24,3.93,10.85v2.73c4.96-5.94,10.28-10.31,15.94-13.11,5.66-2.8,11.95-4.19,18.88-4.19s13.39,1.43,18.56,4.3c5.17,2.87,9.44,7.2,12.79,13,4.82-5.87,10-10.22,15.52-13.06,5.52-2.83,11.64-4.25,18.35-4.25,7.83,0,14.58,1.54,20.24,4.61,5.66,3.08,9.89,7.48,12.69,13.21,2.45,5.18,3.67,13.32,3.67,24.43v55.89c0,6.01-1.36,10.52-4.09,13.53-2.73,3.01-6.33,4.51-10.8,4.51s-7.88-1.52-10.64-4.56c-2.76-3.04-4.14-7.53-4.14-13.48v-48.13c0-6.15-.26-11.08-.79-14.79-.52-3.7-1.94-6.82-4.25-9.33-2.31-2.52-5.8-3.78-10.49-3.78-3.78,0-7.36,1.12-10.75,3.36-3.39,2.24-6.03,5.24-7.92,9.02-2.1,4.82-3.15,13.35-3.15,25.59Z"/><path class="cls-1" d="m979.37,213.09h-56c.07,6.5,1.38,12.23,3.93,17.2,2.55,4.96,5.94,8.7,10.17,11.22,4.23,2.52,8.9,3.78,14,3.78,3.42,0,6.55-.4,9.39-1.21,2.83-.8,5.57-2.06,8.23-3.78,2.66-1.71,5.1-3.55,7.34-5.51,2.24-1.96,5.14-4.61,8.7-7.97,1.47-1.26,3.57-1.89,6.29-1.89,2.94,0,5.31.8,7.13,2.41,1.82,1.61,2.73,3.88,2.73,6.82,0,2.59-1.01,5.61-3.04,9.07-2.03,3.46-5.09,6.78-9.18,9.96-4.09,3.18-9.23,5.82-15.42,7.92-6.19,2.1-13.3,3.15-21.34,3.15-18.39,0-32.68-5.24-42.89-15.73-10.21-10.49-15.31-24.71-15.31-42.68,0-8.46,1.26-16.31,3.78-23.54s6.19-13.44,11.01-18.61c4.82-5.17,10.77-9.14,17.83-11.9,7.06-2.76,14.89-4.14,23.49-4.14,11.18,0,20.78,2.36,28.79,7.08,8,4.72,14,10.82,17.98,18.3,3.99,7.48,5.98,15.1,5.98,22.86,0,7.2-2.06,11.87-6.19,14-4.13,2.13-9.93,3.2-17.41,3.2Zm-56-16.25h51.91c-.7-9.79-3.34-17.11-7.92-21.97-4.58-4.86-10.61-7.29-18.09-7.29s-12.99,2.46-17.57,7.39c-4.58,4.93-7.36,12.22-8.34,21.87Z"/><path class="cls-1" d="m1106.99,213.09h-56c.07,6.5,1.38,12.23,3.93,17.2,2.55,4.96,5.94,8.7,10.17,11.22,4.23,2.52,8.9,3.78,14,3.78,3.42,0,6.55-.4,9.39-1.21,2.83-.8,5.57-2.06,8.23-3.78,2.66-1.71,5.1-3.55,7.34-5.51,2.24-1.96,5.14-4.61,8.7-7.97,1.47-1.26,3.57-1.89,6.29-1.89,2.94,0,5.31.8,7.13,2.41,1.82,1.61,2.73,3.88,2.73,6.82,0,2.59-1.01,5.61-3.04,9.07-2.03,3.46-5.09,6.78-9.18,9.96-4.09,3.18-9.23,5.82-15.42,7.92-6.19,2.1-13.3,3.15-21.34,3.15-18.39,0-32.68-5.24-42.89-15.73-10.21-10.49-15.31-24.71-15.31-42.68,0-8.46,1.26-16.31,3.78-23.54,2.52-7.24,6.19-13.44,11.01-18.61,4.82-5.17,10.77-9.14,17.83-11.9,7.06-2.76,14.89-4.14,23.49-4.14,11.18,0,20.78,2.36,28.79,7.08,8,4.72,14,10.82,17.98,18.3,3.99,7.48,5.98,15.1,5.98,22.86,0,7.2-2.06,11.87-6.19,14-4.13,2.13-9.93,3.2-17.41,3.2Zm-56-16.25h51.91c-.7-9.79-3.34-17.11-7.92-21.97-4.58-4.86-10.61-7.29-18.09-7.29s-12.99,2.46-17.57,7.39c-4.58,4.93-7.36,12.22-8.34,21.87Z"/><path class="cls-1" d="m1178.3,163.91v3.46c5.38-6.64,10.98-11.52,16.78-14.63,5.8-3.11,12.37-4.67,19.72-4.67,8.81,0,16.92,2.27,24.33,6.82,7.41,4.55,13.27,11.19,17.57,19.93,4.3,8.74,6.45,19.09,6.45,31.04,0,8.81-1.24,16.9-3.72,24.28-2.48,7.38-5.89,13.56-10.22,18.56-4.34,5-9.46,8.85-15.36,11.54-5.91,2.69-12.25,4.04-19.03,4.04-8.18,0-15.05-1.64-20.61-4.93-5.56-3.29-10.85-8.11-15.89-14.47v43c0,12.58-4.58,18.88-13.74,18.88-5.38,0-8.95-1.63-10.7-4.88-1.75-3.25-2.62-7.99-2.62-14.21v-123.53c0-5.45,1.19-9.52,3.57-12.22,2.38-2.69,5.63-4.04,9.75-4.04s7.36,1.38,9.91,4.14c2.55,2.76,3.83,6.73,3.83,11.9Zm56.11,41.63c0-7.55-1.15-14.03-3.46-19.45-2.31-5.42-5.51-9.58-9.6-12.48-4.09-2.9-8.62-4.35-13.58-4.35-7.9,0-14.56,3.11-19.98,9.33-5.42,6.22-8.13,15.38-8.13,27.48,0,11.4,2.69,20.26,8.07,26.58,5.38,6.33,12.06,9.49,20.03,9.49,4.75,0,9.16-1.38,13.21-4.14,4.05-2.76,7.31-6.9,9.75-12.43,2.45-5.52,3.67-12.2,3.67-20.03Z"/><path class="cls-1" d="m1309.7,267.83l2.62-6.4-35.24-88.72c-2.17-5.1-3.25-8.81-3.25-11.12,0-2.45.63-4.72,1.89-6.82,1.26-2.1,2.99-3.78,5.19-5.03,2.2-1.26,4.49-1.89,6.87-1.89,4.12,0,7.24,1.31,9.33,3.93,2.1,2.62,3.95,6.38,5.56,11.27l24.22,70.47,22.97-65.54c1.82-5.31,3.46-9.47,4.93-12.48,1.47-3,3.02-5.03,4.67-6.08,1.64-1.05,3.97-1.57,6.97-1.57,2.17,0,4.25.58,6.24,1.73,1.99,1.15,3.53,2.71,4.61,4.67,1.08,1.96,1.63,4.02,1.63,6.19-.28,1.33-.73,3.22-1.36,5.66-.63,2.45-1.4,4.93-2.31,7.45l-37.33,97.74c-3.22,8.6-6.36,15.34-9.44,20.24-3.08,4.89-7.15,8.65-12.22,11.27-5.07,2.62-11.9,3.93-20.5,3.93s-14.68-.91-18.88-2.73c-4.19-1.82-6.29-5.14-6.29-9.96,0-3.29,1-5.82,2.99-7.6,1.99-1.78,4.94-2.67,8.86-2.67,1.54,0,3.04.21,4.51.63,1.82.42,3.39.63,4.72.63,3.28,0,5.87-.49,7.76-1.47,1.89-.98,3.58-2.67,5.09-5.09,1.5-2.41,3.23-5.96,5.19-10.64Z"/><path class="cls-1" d="m1399.78,268.99c-5.5,0-10.33-1.81-14.36-5.39-4.18-3.72-6.3-8.86-6.3-15.27,0-5.52,1.97-10.33,5.85-14.31,3.91-4,8.79-6.04,14.49-6.04s10.56,1.99,14.57,5.91c4.04,3.95,6.09,8.81,6.09,14.44,0,6.32-2.09,11.43-6.21,15.18-3.99,3.63-8.75,5.48-14.14,5.48Zm-.31-31.57c-3.15,0-5.61,1.01-7.74,3.19-2.16,2.21-3.17,4.66-3.17,7.71,0,3.65,1.03,6.34,3.14,8.22,2.27,2.02,4.92,3,8.09,3s5.55-.99,7.78-3.02c2.1-1.91,3.12-4.6,3.12-8.2,0-3.08-1.03-5.52-3.25-7.69-2.21-2.16-4.82-3.22-7.97-3.22Z"/><path class="cls-1" d="m190.45,71.67c-1.33-.77-2.69-1.52-4.05-2.24,1.36.72,2.72,1.47,4.05,2.24Zm-36.55-14.13c.76.17,1.51.34,2.26.51-.75-.18-1.5-.35-2.26-.52h0Z"/><path class="cls-1" d="m385.48,91.91C344.09-8.55,197.98-32.94,127.02,50.21c-2.37,2.78-5.77,4.48-9.41,4.75-160.44,12.02-155.99,253.39,8.82,256.11,0,0,260.1,0,260.1,0,134.75-2.25,139.32-198.12,10.35-210.73-5.06-.5-9.47-3.73-11.41-8.44ZM22.25,182.84c3.62-137.45,204.97-137.27,208.34,0-3.4,137.26-204.75,137.43-208.34,0Zm220.38,104.17h0c-13.85,0-21.79-15.78-13.53-26.89,36.74-49.44,34.03-124.62-12.69-168.64t0,0c-.56-.55-1.11-1.1-1.69-1.64-1.15-1.07-2.3-2.17-3.49-3.19-14.43-12.8-31.79-22.24-50.38-27.39-2.98-.83-3.85-4.68-1.5-6.69,67.7-58.1,184.73-24.26,209.13,63.07,27.98,81.6-39.41,173.76-125.85,171.37Zm143.9,0h-14.9c-14.56,0-22.21-17.18-12.56-28.08,30.79-34.76,45.36-82.87,37.43-129.37-.45-2.62,1.85-4.92,4.48-4.48,94.3,15.62,84.95,162.02-14.46,161.93Z"/></svg>