<?xml version="1.0" encoding="UTF-8"?><svg id="Layer_1" xmlns="http://www.w3.org/2000/svg" viewBox="0 0 1160.64 693.49"><defs><style>.cls-1{fill:#fff;stroke-width:0px;}</style></defs><path class="cls-1" d="m1115.28,693.49c-12.27,0-23.04-4.04-32-12.01-9.33-8.29-14.05-19.74-14.05-34.05,0-12.3,4.39-23.04,13.05-31.9,8.72-8.93,19.59-13.45,32.31-13.45s23.55,4.43,32.49,13.17c9,8.8,13.57,19.63,13.57,32.19,0,14.1-4.66,25.49-13.84,33.85-8.9,8.1-19.5,12.21-31.51,12.21Zm-.7-70.37c-7.03,0-12.51,2.26-17.26,7.12-4.81,4.93-7.06,10.39-7.06,17.19,0,8.15,2.29,14.14,6.99,18.32,5.07,4.51,10.97,6.7,18.03,6.7s12.37-2.2,17.35-6.73c4.69-4.27,6.96-10.25,6.96-18.29,0-6.87-2.3-12.31-7.24-17.14-4.94-4.83-10.75-7.17-17.78-7.17Z"/><path class="cls-1" d="m424.58,159.76c-2.97-1.73-5.99-3.39-9.02-5,3.04,1.61,6.05,3.29,9.02,5Zm-81.47-31.5c1.69.37,3.37.75,5.05,1.14-1.68-.4-3.35-.79-5.03-1.16l-.02.02Z"/><path class="cls-1" d="m859.35,204.89C767.08-19.06,441.35-73.42,283.17,111.93c-5.28,6.19-12.86,9.99-20.98,10.6-357.67,26.79-347.76,564.87,19.67,570.96-.01,0,579.85,0,579.85,0,300.4-5.01,310.58-441.66,23.08-469.79-11.29-1.1-21.12-8.32-25.44-18.81ZM49.61,407.6c8.07-306.42,456.94-306.03,464.46,0-7.57,305.99-456.46,306.37-464.46,0Zm491.3,232.22h0c-30.87,0-48.57-35.17-30.15-59.94,81.9-110.21,75.87-277.82-28.29-375.96t-.02-.02c-1.24-1.22-2.48-2.45-3.76-3.66-2.57-2.38-5.13-4.83-7.78-7.11-32.16-28.53-70.88-49.58-112.3-61.06-6.64-1.84-8.58-10.42-3.35-14.91,150.91-129.52,411.81-54.08,466.2,140.61,62.37,181.92-87.85,387.36-280.55,382.04Zm320.81,0h-33.21c-32.46,0-49.52-38.29-28-62.59,68.63-77.5,101.13-184.74,83.45-288.41-1-5.85,4.13-10.96,9.99-9.99,210.22,34.82,189.39,361.19-32.23,360.99Z"/></svg>